<svg width="49" height="50" viewBox="0 0 49 50" fill="none" xmlns="http://www.w3.org/2000/svg">
<g clip-path="url(#clip0_5_8)">
<path fill-rule="evenodd" clip-rule="evenodd" d="M61 0H-14V1.90735e-06H23.7339L61 0ZM16.8454 50H61V0L61.4678 1.90735e-06V28.5795V57.159H23.7339H-14V50H13.3301C14.437 50.146 15.6093 50.1461 16.8454 50ZM16.8454 50H13.3301C12.7016 49.9171 12.0943 49.7871 11.5083 49.6101C9.04152 48.8617 6.97049 47.3324 5.53921 45.1958C4.32479 43.379 3.61998 41.0959 3.61998 38.9755C3.61998 35.7162 5.16512 32.3865 7.6265 30.3474C8.08191 29.9732 8.67828 29.5557 8.76502 29.5557C8.79755 29.5557 8.81381 29.6207 8.79755 29.7021C8.78671 29.7888 8.74876 30.2552 8.71623 30.7487C8.58611 32.6956 8.93309 34.4364 9.73005 35.8084C10.527 37.1805 11.9095 38.3356 13.3516 38.8291C14.9401 39.3768 16.7293 39.2141 18.9196 38.3193C20.2261 37.7879 20.9309 37.354 24.3574 34.9787C27.6482 32.6956 28.9169 31.8876 30.2397 31.2097C32.1101 30.2607 34.127 29.675 35.9323 29.5611C36.1652 29.5476 36.3813 29.532 36.5178 29.5221C36.6005 29.5161 36.654 29.5123 36.6642 29.5123C36.6968 29.5068 37.098 29.5285 37.5642 29.5557C39.0822 29.6533 40.2262 29.9515 41.5978 30.6132C43.2406 31.4103 44.558 32.4841 45.3712 33.6934C46.2224 34.9679 46.6344 36.367 46.7049 38.2109C46.7646 39.7944 46.5531 40.8465 45.9296 42.11C45.5447 42.8964 45.0297 43.6014 44.3574 44.2738C43.8315 44.8053 42.9641 45.5103 42.6279 45.6838C42.3677 45.8194 42.1075 45.7923 41.7225 45.5808C40.069 44.6697 39.1093 44.3009 37.6455 44.0189C36.7672 43.8508 34.8209 43.8563 33.9426 44.0244C32.2023 44.3552 32.083 44.404 26.6615 46.7359C23.5279 48.0862 22.205 48.6285 21.202 48.9702C19.6725 49.4944 18.2196 49.8376 16.8454 50ZM16.2088 3.00979C16.3899 3.3396 16.6108 3.73704 16.7386 3.96697L16.7943 4.06729C16.9082 4.26252 17.2009 4.81025 17.4449 5.28206C17.6943 5.75929 17.9708 6.22567 18.0575 6.32328C18.3449 6.65409 18.4967 6.67036 20.6273 6.61071C21.8363 6.57817 23.1917 6.57817 24.3899 6.61071C25.42 6.63782 26.3471 6.64325 26.4501 6.62155C26.9001 6.51852 27.0139 6.38294 27.6916 5.09767C28.0006 4.51741 28.353 3.85579 28.4777 3.63345L28.5156 3.56585L28.5159 3.56542C28.6476 3.33064 28.8622 2.9482 29.0145 2.66814L29.3235 2.10957L29.5241 2.27226C29.8385 2.52172 30.8144 3.62802 31.324 4.31133C31.9909 5.20613 32.6035 6.25279 33.0535 7.2669C33.6661 8.64978 34.23 10.7377 34.4197 12.3375C34.4956 12.9665 34.5227 15.6347 34.4577 15.7052C34.436 15.7269 34.0782 15.7865 33.6661 15.8353C31.6331 16.0956 29.7193 16.703 27.9898 17.6412C25.5338 18.9698 23.7447 20.9764 22.8068 23.4547C22.6929 23.753 22.5737 23.997 22.5357 23.997C22.4544 23.997 22.4164 23.9319 22.2375 23.4547C20.958 20.1033 18.1497 17.6575 14.1594 16.4319C13.4221 16.2041 12.2673 15.9546 11.4921 15.857C11.1125 15.8136 10.7493 15.7648 10.6842 15.7486L10.5595 15.7269V14.3277C10.5595 12.8635 10.6355 11.9416 10.8252 11.0088C11.324 8.61181 12.1101 6.66493 13.3028 4.89702C13.8829 4.03475 14.2896 3.53583 15.054 2.74949C15.6233 2.16922 15.6883 2.11499 15.748 2.20718C15.7913 2.25599 15.9973 2.61933 16.2088 3.00979ZM3.0453 21.6109C3.33264 20.331 3.81516 19.4471 4.66092 18.6228C5.38198 17.9178 6.22232 17.446 6.95423 17.3321C7.29579 17.2833 7.98974 17.3592 8.39093 17.4948C9.16079 17.7497 9.68668 18.2432 9.91981 18.9265C10.012 19.2085 10.0337 19.3766 10.0174 19.767C9.98487 20.7052 9.99029 20.7703 10.2288 21.3235C10.4891 21.9254 10.5758 22.446 10.4999 22.9612C10.4403 23.3842 10.2939 23.7259 9.95776 24.2248C9.56741 24.7996 9.47524 25.0871 9.42103 25.8192C9.36681 26.6001 9.25838 27.0014 8.99272 27.381C8.58069 27.983 7.88131 28.3084 7.00302 28.3084C5.50126 28.3084 4.25973 27.3919 3.45734 25.689C3.19711 25.1413 3.15915 25.022 3.01277 24.2953C2.90434 23.7476 2.92061 22.1478 3.0453 21.6109ZM35.0324 19.9564C35.0378 19.0675 35.0378 19.062 35.2113 18.6987C35.5474 17.9829 36.2142 17.5273 37.1684 17.3538C37.5263 17.2887 38.1768 17.3375 38.5726 17.4622C39.2178 17.6629 39.7816 18.0262 40.3997 18.6336C41.5328 19.7508 42.0478 21.0198 42.0966 22.8311C42.1291 23.9699 42.0153 24.6803 41.6792 25.4721C40.9093 27.2834 39.5864 28.3084 38.025 28.3084C37.2823 28.3084 36.7076 28.0914 36.2685 27.6522C35.8347 27.2183 35.7372 26.9472 35.6341 25.8951C35.5474 25.0437 35.4769 24.8213 35.0703 24.2139C34.6637 23.612 34.5607 23.3191 34.5336 22.7172C34.5065 22.1315 34.5769 21.8115 34.8643 21.2096C35.0324 20.8571 35.0324 20.8462 35.0324 19.9569V19.9568V19.9564ZM17.8515 11.0305C17.4828 11.1986 17.2226 11.6433 17.1196 12.2832C17.0654 12.5923 17.0708 12.7333 17.1413 13.0587C17.4666 14.6206 18.8274 14.588 19.1039 13.0153C19.2557 12.1422 18.9358 11.2691 18.3828 11.0305C18.166 10.9383 18.063 10.9383 17.8515 11.0305ZM26.0543 11.6867C26.2007 11.3667 26.4067 11.1335 26.6344 11.0305C26.8458 10.9383 26.9488 10.9383 27.1657 11.0305C27.5398 11.1878 27.8055 11.627 27.9139 12.2886C27.9681 12.6086 27.9681 12.7225 27.8868 13.075C27.6049 14.3548 26.5856 14.626 26.0868 13.5522C25.9404 13.2323 25.9296 13.1563 25.9296 12.5815C25.9296 12.05 25.9513 11.9199 26.0543 11.6867ZM20.9689 13.6986C20.9689 13.7854 22.6713 16.1065 22.7038 16.0685C22.7309 16.0468 23.0182 15.6455 23.3435 15.1846C23.6742 14.7236 24.0429 14.2084 24.1622 14.0403C24.2869 13.8722 24.3845 13.7203 24.3845 13.6986C24.3845 13.6824 23.6146 13.6661 22.6767 13.6661C21.7388 13.6661 20.9689 13.6824 20.9689 13.6986Z" fill="#06007D"/>
</g>
<defs>
<clipPath id="clip0_5_8">
<rect width="49" height="50" fill="white"/>
</clipPath>
</defs>
</svg>
