<svg width="44" height="50" viewBox="0 0 44 50" fill="none" xmlns="http://www.w3.org/2000/svg">
<path d="M7.76927 0.497221C7.62132 0.77752 7.37474 2.31092 7.17748 4.24003C6.96378 6.31754 6.75007 7.63659 6.60213 7.88391C6.12541 8.60939 5.00758 8.52695 3.70893 7.66957C3.13358 7.29034 2.82124 7.43873 2.39384 8.27963C2.03219 9.0216 2.03219 9.54922 2.39384 12.0224C2.64042 13.7042 2.36096 14.067 1.11163 13.6877C-0.121271 13.325 -0.302096 13.968 0.437642 16.0126C0.914362 17.3151 1.57191 18.3209 2.57466 19.3102C3.65961 20.3819 4.72812 20.992 6.22404 21.3877C7.27611 21.668 7.3583 21.668 8.24599 21.3877C9.39669 21.025 10.3008 20.1676 11.6981 18.0901C13.4899 15.4355 14.3612 14.677 15.3475 14.9408C16.1201 15.1222 17.1393 16.3918 18.1256 18.3704C19.4243 20.959 19.8845 21.5526 20.8873 21.8659C22.4161 22.3275 24.1093 22.0802 26.3285 21.058C29.6326 19.5246 32.1313 16.8535 33.0683 13.8361C33.4628 12.616 33.3149 12.4182 31.9669 12.3522C30.6683 12.2863 30.5039 12.0554 30.997 10.9837C31.8354 9.18648 32.0656 6.94409 31.4245 6.94409C31.2929 6.94409 30.6683 7.2079 30.0272 7.53766C28.86 8.13124 28.3997 8.13124 28.1696 7.55415C28.1203 7.42225 28.071 6.18564 28.071 4.81712C28.0545 3.4486 27.9723 2.14604 27.8901 1.9152C27.5121 0.942401 26.0161 1.66788 22.4161 4.60277C21.4462 5.3942 21.2489 5.49313 20.9366 5.32825C20.1476 4.93253 17.9283 4.63575 15.8078 4.63575H13.6214L12.5529 3.51455C11.9776 2.90449 11.1721 2.03062 10.7775 1.56895C9.39669 -0.0304008 8.24599 -0.442604 7.76927 0.497221ZM9.95561 2.57473C10.3173 2.90449 10.9419 3.74539 11.3529 4.43789C12.2241 5.93831 12.1748 6.18563 10.8597 6.6473C9.69259 7.05951 8.8871 7.02653 8.64052 6.58135C8.3775 6.10319 8.50901 2.6077 8.8049 2.26145C9.11724 1.88222 9.23231 1.9152 9.95561 2.57473ZM26.8052 3.8608C26.9367 4.4214 26.6408 7.50469 26.4107 7.93338C26.1312 8.44451 25.4408 8.31261 24.0599 7.43873C22.6627 6.56486 22.6298 6.26807 23.8134 5.37771C24.9312 4.52033 26.46 3.48158 26.5915 3.48158C26.6573 3.48158 26.7394 3.64646 26.8052 3.8608Z" fill="#FF460A"/>
<ellipse cx="8.85309" cy="15.8544" rx="1.53701" ry="2.24563" transform="rotate(8.95702 8.85309 15.8544)" fill="#1F1511"/>
<ellipse cx="21.1247" cy="16.9556" rx="1.58374" ry="2.38918" transform="rotate(8.95702 21.1247 16.9556)" fill="#1F1511"/>
<path d="M36.7669 16.3051C34.9751 16.896 33.0847 18.3895 32.0655 19.9815C31.4244 20.9991 30.6025 23.0343 30.3394 24.2324C30.0764 25.4797 30.0764 28.795 30.3394 30.6825C30.6025 32.5371 30.5696 34.6543 30.2737 35.2123C30.0929 35.5898 29.0572 36.2135 28.6463 36.2135C28.5805 36.2135 28.3011 35.1303 28.0545 33.8337C27.5613 31.2733 26.0983 27.8103 24.8654 26.2675C23.09 24.0354 21.6599 24.0026 18.7338 26.0706C16.12 27.9252 15.2323 28.0565 12.6844 26.9076C10.4816 25.9064 10.3008 25.89 9.49527 26.6122C8.62402 27.4 7.35825 29.9932 6.68426 32.3566C4.64587 39.6109 5.50068 48.3587 8.37744 49.7374C8.68977 49.8851 9.13362 50 9.36376 50C9.90623 50 11.0898 49.4748 11.6323 48.9824C12.109 48.5557 13.2597 46.9309 13.2597 46.6847C13.2597 46.6026 13.572 46.5862 13.9995 46.6518C14.8049 46.7667 18.2735 46.4877 20.4105 46.1266L21.7256 45.9133L22.1366 46.4221C22.3667 46.7011 22.9256 47.374 23.3695 47.932C25.0791 50.0164 25.9503 50.3939 27.3147 49.6225C28.5312 48.9332 28.9915 47.5217 29.1394 44.0258L29.2052 42.2041L30.8162 42.1056C34.597 41.843 37.7533 40.4643 40.3177 37.9368C42.8164 35.4749 43.9999 32.5699 43.9999 28.8771C43.9999 26.1526 43.4082 24.3801 41.5835 21.672C40.5314 20.1128 40.0547 19.0788 40.0547 18.3567C40.0382 17.733 39.4958 16.5841 39.1012 16.3708C38.756 16.1902 37.2272 16.141 36.7669 16.3051ZM38.0656 19.0953C38.3286 19.3086 38.4601 19.6861 38.5752 20.4411C38.7067 21.4258 39.1834 22.5583 40.3834 24.7247C41.0739 25.9885 41.4191 27.2194 41.2876 28.0072C41.1725 28.713 40.5643 29.4844 40.1204 29.4844C39.8081 29.4844 38.2464 28.5324 38.2464 28.3519C38.2464 28.1385 37.0628 27.6626 36.7834 27.7611C36.6354 27.8103 36.2574 28.2206 35.9615 28.6802C35.2053 29.7962 34.7943 30.0424 33.9395 29.9275C33.5779 29.8783 33.1669 29.747 33.0518 29.6157C32.723 29.2874 32.1641 26.9076 32.1641 25.7916C32.1641 24.0682 32.871 22.3121 34.1039 21.0319C35.0902 19.9815 35.6162 19.5712 36.2902 19.2594C37.4574 18.7342 37.6053 18.7342 38.0656 19.0953ZM23.7476 31.0436C24.0763 31.7493 24.1914 33.2264 23.9284 33.5218C23.8133 33.6696 23.0243 34.1127 22.1859 34.5066C20.953 35.0974 20.5913 35.3436 20.3941 35.7704C20.0324 36.5253 20.2626 37.3295 21.0023 37.8219C21.5777 38.2158 21.7914 38.2322 23.4188 37.9204C24.175 37.7727 24.438 38.0517 24.438 39.0036C24.438 39.7422 24.3887 39.8242 23.7969 40.2674C23.4352 40.5136 22.827 40.9239 22.4325 41.1537C22.0544 41.3998 20.9201 42.0728 19.9502 42.68C18.9804 43.2709 18.0598 43.7632 17.9283 43.7632C17.7639 43.7632 17.6981 43.5663 17.6981 43.0575C17.6981 42.0235 18.1913 34.2276 18.2899 33.7844C18.3392 33.5218 18.9968 32.9966 20.4598 32.0283C22.7777 30.5019 23.4188 30.305 23.7476 31.0436ZM11.435 31.6344C12.0268 31.9298 13.2104 32.4714 14.0652 32.8818L15.594 33.6039L15.4954 35.36C15.4461 36.3284 15.3639 38.4784 15.2981 40.1525C15.1995 43.5006 15.1666 43.7632 14.7885 43.7632C14.4597 43.7632 10.9747 42.5651 10.3665 42.2369C8.75553 41.3834 8.24593 40.1525 9.03499 38.9872C9.3802 38.462 9.47883 38.4292 10.5309 38.3471C11.5008 38.2815 11.698 38.1994 12.0433 37.8055C12.7337 37.0013 12.4542 36.1478 11.1391 35.0646C9.44595 33.6531 9.47883 33.7024 9.47883 32.6192C9.47883 31.6672 9.72541 31.1256 10.1693 31.1256C10.2679 31.1256 10.8432 31.3554 11.435 31.6344Z" fill="#FF460A"/>
<path d="M11.6053 21.4271C11.2158 21.493 10.7585 21.6577 10.623 21.8059C10.4028 22.0201 10.4028 22.1519 10.7246 22.9754C10.9109 23.4696 11.3682 24.2108 11.7239 24.6061C12.2998 25.2321 12.4522 25.3144 13.0619 25.2979C13.8241 25.265 14.925 24.6226 15.7888 23.6508C16.8897 22.4483 16.9067 21.8883 15.8566 21.6248C14.9419 21.4106 12.4691 21.2789 11.6053 21.4271Z" fill="#1F1511"/>
</svg>
